<svg xmlns="http://www.w3.org/2000/svg" xmlns:xlink="http://www.w3.org/1999/xlink" viewBox="0 0 33.49 34.79"><defs><style>.cls-1,.cls-2,.cls-3{fill:none;stroke-linejoin:round;}.cls-1,.cls-2,.cls-3,.cls-4{stroke-linecap:round;}.cls-1{stroke-width:3.13px;stroke:url(#radial-gradient);}.cls-2,.cls-3{stroke-width:2.51px;}.cls-2{stroke:url(#New_Gradient_Swatch);}.cls-3{stroke:url(#New_Gradient_Swatch-2);}.cls-4{stroke-miterlimit:10;stroke-width:2.46px;fill:url(#New_Gradient_Swatch-3);stroke:url(#New_Gradient_Swatch-4);}</style><radialGradient id="radial-gradient" cx="166.84" cy="217.1" r="70.67" gradientTransform="translate(-26.24 -39.03) scale(0.18 0.27)" gradientUnits="userSpaceOnUse"><stop offset="0" stop-color="#ff3cac"/><stop offset="0.42" stop-color="#784ba0"/><stop offset="1" stop-color="#2b86c5"/></radialGradient><linearGradient id="New_Gradient_Swatch" x1="16.13" y1="12.89" x2="33.49" y2="12.89" gradientUnits="userSpaceOnUse"><stop offset="0" stop-color="#ff3cac"/><stop offset="0.48" stop-color="#784ba0"/><stop offset="1" stop-color="#2b86c5"/></linearGradient><linearGradient id="New_Gradient_Swatch-2" x1="2.67" y1="11.61" x2="20.31" y2="11.61" xlink:href="#New_Gradient_Swatch"/><linearGradient id="New_Gradient_Swatch-3" x1="1.23" y1="2.71" x2="4.71" y2="2.71" xlink:href="#New_Gradient_Swatch"/><linearGradient id="New_Gradient_Swatch-4" x1="0" y1="2.71" x2="5.94" y2="2.71" xlink:href="#New_Gradient_Swatch"/></defs><g id="Layer_2" data-name="Layer 2"><g id="Layer_1-2" data-name="Layer 1"><polyline class="cls-1" points="3.85 6.54 3.85 21.14 3.85 33.23"/><polygon class="cls-2" points="31.22 5.92 27.96 12.74 32.23 19.56 31.22 19.88 17.39 19.88 17.39 18.61 19.09 18.61 19.09 5.9 31.22 5.9 31.22 5.92"/><polygon class="cls-3" points="19.06 4.61 19.06 18.6 3.93 18.61 3.93 4.63 19.06 4.61"/><path class="cls-4" d="M4.71,2.71A1.62,1.62,0,0,1,3,4.19H3A1.62,1.62,0,0,1,1.23,2.71,1.62,1.62,0,0,1,3,1.23H3A1.62,1.62,0,0,1,4.71,2.71Z"/></g></g></svg>