<svg xmlns="http://www.w3.org/2000/svg" viewBox="0 0 35.57 27.7"><defs><style>.cls-1,.cls-2,.cls-3{fill:none;stroke-linecap:round;stroke-linejoin:round;stroke-width:1.98px;}.cls-1{stroke:#00aeef;}.cls-2{stroke:#ee2a7b;}.cls-3{stroke:#231f20;}</style></defs><g id="Layer_2" data-name="Layer 2"><g id="Layer_1-2" data-name="Layer 1"><path class="cls-1" d="M1,2.83A17.82,17.82,0,0,1,9.48,1c7.54.35,11,5.9,17.28,5A12,12,0,0,0,33,2.83"/><path class="cls-1" d="M1,21.61a17.82,17.82,0,0,1,8.47-1.82c7.54.35,11,5.9,17.28,5A12,12,0,0,0,33,21.61"/><polyline class="cls-1" points="1.01 2.83 1.01 18.57 1.01 21.62"/><polyline class="cls-1" points="33.04 2.83 33 18.56 32.99 21.64"/><path class="cls-2" d="M2.55,4.66A17.94,17.94,0,0,1,11,2.84c7.54.35,11,5.91,17.28,5a12.06,12.06,0,0,0,6.25-3.17"/><path class="cls-2" d="M2.55,23.45A17.82,17.82,0,0,1,11,21.63c7.54.35,11,5.9,17.28,5a12,12,0,0,0,6.25-3.16"/><polyline class="cls-2" points="2.55 4.66 2.55 20.4 2.55 23.45"/><polyline class="cls-2" points="34.58 4.66 34.54 20.39 34.53 23.47"/><path class="cls-3" d="M1,4A17.85,17.85,0,0,1,9.46,2.13c7.54.35,11,5.91,17.28,5A12,12,0,0,0,33,4"/><path class="cls-3" d="M1,22.74a17.85,17.85,0,0,1,8.47-1.82c7.54.35,11,5.9,17.28,5A12,12,0,0,0,33,22.74"/><polyline class="cls-3" points="0.99 3.95 0.99 19.69 0.99 22.74"/><polyline class="cls-3" points="33.02 3.95 32.98 19.68 32.97 22.76"/></g></g></svg>