<svg xmlns="http://www.w3.org/2000/svg" viewBox="0 0 36.59 28.74"><defs><style>.cls-1,.cls-2,.cls-3{fill:none;stroke-linecap:round;stroke-linejoin:round;stroke-width:1.98px;}.cls-1{stroke:#939598;}.cls-2{stroke:#6d6e71;}.cls-3{stroke:#231f20;}</style></defs><g id="Layer_2" data-name="Layer 2"><g id="Layer_1-2" data-name="Layer 1"><path class="cls-1" d="M1,2.83A17.85,17.85,0,0,1,9.46,1c7.54.35,11,5.9,17.28,5A12,12,0,0,0,33,2.83"/><path class="cls-1" d="M1,21.61a17.85,17.85,0,0,1,8.47-1.82c7.54.35,11,5.9,17.28,5A12,12,0,0,0,33,21.61"/><polyline class="cls-1" points="0.99 2.83 0.99 18.57 0.99 21.62"/><polyline class="cls-1" points="33.02 2.83 32.98 18.56 32.97 21.64"/><path class="cls-2" d="M3.56,5.71A17.89,17.89,0,0,1,12,3.89c7.54.35,11,5.9,17.27,5a12,12,0,0,0,6.25-3.16"/><path class="cls-2" d="M3.56,24.49A17.89,17.89,0,0,1,12,22.67c7.54.35,11,5.9,17.27,5a11.9,11.9,0,0,0,6.25-3.16"/><polyline class="cls-2" points="3.57 5.71 3.57 21.45 3.57 24.5"/><polyline class="cls-2" points="35.6 5.71 35.56 21.44 35.55 24.52"/><path class="cls-3" d="M2,4.28a17.82,17.82,0,0,1,8.47-1.82c7.54.35,11,5.91,17.28,5A12,12,0,0,0,34,4.28"/><path class="cls-3" d="M2,23.07a17.82,17.82,0,0,1,8.47-1.82c7.54.35,11,5.9,17.28,5A12,12,0,0,0,34,23.07"/><polyline class="cls-3" points="2 4.28 2 20.02 2 23.07"/><polyline class="cls-3" points="34.03 4.28 33.99 20.01 33.98 23.09"/></g></g></svg>