<svg xmlns="http://www.w3.org/2000/svg" viewBox="0 0 38.21 31.58"><defs><style>.cls-1,.cls-2,.cls-3{fill:none;stroke-linecap:round;stroke-linejoin:round;stroke-width:3px;}.cls-1{stroke:#00aeef;}.cls-2{stroke:#ee2a7b;}.cls-3{stroke:#231f20;}</style></defs><g id="Layer_2" data-name="Layer 2"><g id="Layer_1-2" data-name="Layer 1"><path class="cls-1" d="M4.68,3.34a17.82,17.82,0,0,1,8.47-1.82c7.54.35,11,5.9,17.28,5a12,12,0,0,0,6.25-3.16"/><path class="cls-1" d="M4.68,22.12a17.82,17.82,0,0,1,8.47-1.82c7.54.35,11,5.91,17.28,5a12,12,0,0,0,6.25-3.16"/><polyline class="cls-1" points="4.68 3.34 4.68 19.08 4.68 22.13"/><polyline class="cls-1" points="36.71 3.34 36.67 19.07 36.66 22.15"/><path class="cls-2" d="M1.5,8A18,18,0,0,1,10,6.21c7.54.35,11,5.91,17.28,5A12.06,12.06,0,0,0,33.5,8"/><path class="cls-2" d="M1.5,26.82A17.85,17.85,0,0,1,10,25c7.54.35,11,5.9,17.28,5a12,12,0,0,0,6.25-3.16"/><polyline class="cls-2" points="1.5 8.03 1.5 23.77 1.5 26.82"/><polyline class="cls-2" points="33.53 8.03 33.49 23.76 33.48 26.84"/><path class="cls-3" d="M3.67,5.89a17.85,17.85,0,0,1,8.47-1.82c7.54.35,11,5.9,17.28,5a12,12,0,0,0,6.25-3.16"/><path class="cls-3" d="M3.67,24.67a17.85,17.85,0,0,1,8.47-1.82c7.54.35,11,5.91,17.28,5a12,12,0,0,0,6.25-3.16"/><polyline class="cls-3" points="3.67 5.89 3.67 21.63 3.67 24.68"/><polyline class="cls-3" points="35.7 5.89 35.66 21.62 35.65 24.7"/></g></g></svg>